<?xml version="1.0" standalone="no"?><!DOCTYPE svg PUBLIC "-//W3C//DTD SVG 1.1//EN" "http://www.w3.org/Graphics/SVG/1.1/DTD/svg11.dtd"><svg width="100%" height="100%" viewBox="0 0 103 102" version="1.1" xmlns="http://www.w3.org/2000/svg" xmlns:xlink="http://www.w3.org/1999/xlink" xml:space="preserve" style="fill-rule:evenodd;clip-rule:evenodd;stroke-linejoin:round;stroke-miterlimit:1.41421;"><g><g><g opacity="0.199997"><clipPath id="_clip1"><rect x="0.299" y="0.172" width="102.543" height="101.656"/></clipPath><g clip-path="url(#_clip1)"><path d="M101.886,48.392c5.208,23.568 -11.231,45.699 -40.537,52.176c-29.307,6.477 -54.953,-13.052 -59.758,-34.794c-6.477,-29.309 12.03,-58.317 41.337,-64.794c25.036,-5.532 52.481,18.104 58.958,47.412" style="fill:#ffc20c;fill-rule:nonzero;"/></g></g></g><path d="M96.313,48.691c4.644,21.015 -10.015,40.75 -36.147,46.525c-26.133,5.775 -49,-11.639 -53.286,-31.025c-5.776,-26.135 10.728,-52.001 36.86,-57.776c22.325,-4.934 46.798,16.143 52.573,42.276" style="fill:#faa818;fill-rule:nonzero;"/><clipPath id="_clip2"><path d="M8.494,54.236c0,18.366 17.178,38.658 41.933,38.658c24.757,0 41.935,-14.898 41.935,-34.805c0,-24.757 -17.897,-48.678 -39.044,-48.678c-24.756,0 -44.824,20.068 -44.824,44.825Z"/></clipPath><g clip-path="url(#_clip2)"><path d="M92.362,9.411l0,83.483l-83.868,0l0,-83.483l83.868,0Z" style="fill:url(#_Linear3);fill-rule:nonzero;"/></g><g><g opacity="0.100006"><clipPath id="_clip4"><rect x="8.494" y="38.489" width="83.648" height="54.406"/></clipPath><g clip-path="url(#_clip4)"><path d="M52.739,84.106c-24.756,0 -41.934,-20.293 -41.934,-38.66c0,-2.367 0.186,-4.689 0.54,-6.958c-1.839,4.901 -2.852,10.204 -2.852,15.747c0,18.366 17.179,38.659 41.934,38.659c23.14,0 39.656,-13.017 41.714,-30.975c-5.632,13.261 -20.244,22.187 -39.402,22.187" style="fill:#000;fill-rule:nonzero;"/></g></g></g><g><g opacity="0.5"><clipPath id="_clip5"><rect x="10.682" y="9.411" width="80.786" height="39.05"/></clipPath><g clip-path="url(#_clip5)"><path d="M52.823,16.45c17.301,0 32.543,14.187 38.645,32.012c-3.855,-20.982 -19.771,-39.051 -38.15,-39.051c-19.924,0 -36.803,13.003 -42.636,30.982c7.979,-14.235 23.851,-23.943 42.141,-23.943" style="fill:#fff;fill-rule:nonzero;"/></g></g></g><g><g opacity="0.800003"><g><clipPath id="_clip6"><rect x="25.641" y="14.973" width="16.848" height="13.397"/></clipPath><g clip-path="url(#_clip6)"><path d="M41.951,15.761c-1.316,-1.489 -5.268,-0.715 -7.264,1.048c-1.995,1.764 -2.709,4.101 -1.393,5.591c1.316,1.489 4.715,1.63 6.711,-0.133c1.996,-1.764 3.261,-5.017 1.946,-6.506" style="fill:#fff;fill-rule:nonzero;"/><path d="M31.207,23.719c-0.786,-0.89 -3.144,-0.427 -4.335,0.626c-1.192,1.052 -1.618,2.448 -0.832,3.337c0.785,0.889 2.814,0.973 4.006,-0.08c1.191,-1.052 1.946,-2.994 1.161,-3.883" style="fill:#fff;fill-rule:nonzero;"/></g></g></g></g><g><g><g><path d="M67.667,67.246c-2.63,0 -5.193,-0.924 -7.215,-2.604c-0.248,-0.207 -0.552,-0.309 -0.855,-0.309c-0.304,0 -0.607,0.102 -0.855,0.309c-2.022,1.68 -4.584,2.604 -7.214,2.604c-2.63,0 -5.193,-0.924 -7.215,-2.604c-0.496,-0.412 -1.214,-0.412 -1.71,0c-2.021,1.68 -4.584,2.604 -7.213,2.604c-6.229,0 -11.296,-5.066 -11.296,-11.294c0,-5.9 4.605,-10.847 10.485,-11.263c0.541,-0.038 1.004,-0.399 1.174,-0.912c1.892,-5.684 7.188,-9.504 13.18,-9.504c6.179,0 11.672,4.15 13.359,10.091c0.1,0.352 0.341,0.649 0.666,0.819c0.326,0.17 0.706,0.199 1.053,0.081c1.181,-0.403 2.411,-0.608 3.656,-0.608c6.228,0 11.294,5.067 11.294,11.296c0,6.228 -5.066,11.294 -11.294,11.294M67.667,41.98c-1.088,0 -2.166,0.127 -3.22,0.377c-2.397,-6.397 -8.596,-10.76 -15.514,-10.76c-6.853,0 -12.944,4.19 -15.421,10.513c-6.848,0.924 -12.094,6.841 -12.094,13.842c0,7.703 6.268,13.97 13.972,13.97c2.893,0 5.719,-0.905 8.069,-2.567c2.349,1.662 5.175,2.567 8.069,2.567c2.893,0 5.72,-0.905 8.069,-2.567c2.35,1.662 5.176,2.567 8.07,2.567c7.704,0 13.97,-6.267 13.97,-13.97c0,-7.705 -6.266,-13.972 -13.97,-13.972" style="fill:#feef47;fill-rule:nonzero;"/><path d="M38.323,47.934c-0.513,0.532 -0.498,1.378 0.034,1.892c0.259,0.25 0.594,0.375 0.929,0.375c0.35,0 0.699,-0.137 0.963,-0.41c4.666,-4.836 12.398,-4.975 17.236,-0.307c0.531,0.513 1.377,0.498 1.892,-0.033c0.513,-0.532 0.497,-1.379 -0.034,-1.893c-5.899,-5.691 -15.328,-5.522 -21.02,0.376" style="fill:#feef47;fill-rule:nonzero;"/></g></g></g></g><defs><linearGradient id="_Linear3" x1="0" y1="0" x2="1" y2="0" gradientUnits="userSpaceOnUse" gradientTransform="matrix(-3.7e-06,84.4227,-84.4227,-3.7e-06,50.4282,10.9126)"><stop offset="0%" style="stop-color:#ffcb02;stop-opacity:1"/><stop offset="100%" style="stop-color:#f5821f;stop-opacity:1"/></linearGradient></defs></svg>