<?xml version="1.0" standalone="no"?><!DOCTYPE svg PUBLIC "-//W3C//DTD SVG 1.1//EN" "http://www.w3.org/Graphics/SVG/1.1/DTD/svg11.dtd"><svg width="100%" height="100%" viewBox="0 0 104 102" version="1.1" xmlns="http://www.w3.org/2000/svg" xmlns:xlink="http://www.w3.org/1999/xlink" xml:space="preserve" style="fill-rule:evenodd;clip-rule:evenodd;stroke-linejoin:round;stroke-miterlimit:1.41421;"><g><g><g opacity="0.199997"><clipPath id="_clip1"><rect x="0.533" y="0.172" width="102.544" height="101.656"/></clipPath><g clip-path="url(#_clip1)"><path d="M102.121,48.392c5.208,23.568 -11.231,45.699 -40.537,52.176c-29.308,6.477 -54.953,-13.052 -59.759,-34.794c-6.477,-29.309 12.03,-58.317 41.337,-64.794c25.036,-5.532 52.481,18.104 58.959,47.412" style="fill:#ffc20c;fill-rule:nonzero;"/></g></g></g><path d="M96.547,48.691c4.645,21.015 -10.014,40.75 -36.146,46.525c-26.133,5.775 -49,-11.639 -53.286,-31.025c-5.775,-26.135 10.727,-52.001 36.86,-57.776c22.324,-4.934 46.797,16.143 52.572,42.276" style="fill:#faa818;fill-rule:nonzero;"/><clipPath id="_clip2"><path d="M8.728,54.236c0,18.366 17.179,38.658 41.934,38.658c24.756,0 41.935,-14.898 41.935,-34.805c0,-24.757 -17.897,-48.678 -39.044,-48.678c-24.756,0 -44.825,20.068 -44.825,44.825Z"/></clipPath><g clip-path="url(#_clip2)"><path d="M92.597,9.411l0,83.483l-83.869,0l0,-83.483l83.869,0Z" style="fill:url(#_Linear3);fill-rule:nonzero;"/></g><g><g opacity="0.100006"><clipPath id="_clip4"><rect x="8.729" y="38.489" width="83.647" height="54.406"/></clipPath><g clip-path="url(#_clip4)"><path d="M52.974,84.106c-24.756,0 -41.935,-20.293 -41.935,-38.66c0,-2.367 0.188,-4.689 0.541,-6.958c-1.839,4.901 -2.851,10.204 -2.851,15.747c0,18.366 17.178,38.659 41.933,38.659c23.14,0 39.656,-13.017 41.714,-30.975c-5.632,13.261 -20.245,22.187 -39.402,22.187" style="fill:#000;fill-rule:nonzero;"/></g></g></g><g><g opacity="0.5"><clipPath id="_clip5"><rect x="10.916" y="9.411" width="80.786" height="39.05"/></clipPath><g clip-path="url(#_clip5)"><path d="M53.058,16.45c17.301,0 32.543,14.187 38.645,32.012c-3.855,-20.982 -19.771,-39.051 -38.15,-39.051c-19.924,0 -36.803,13.003 -42.637,30.982c7.98,-14.235 23.852,-23.943 42.142,-23.943" style="fill:#fff;fill-rule:nonzero;"/></g></g></g><g><g opacity="0.800003"><g><clipPath id="_clip6"><rect x="25.875" y="14.973" width="16.849" height="13.397"/></clipPath><g clip-path="url(#_clip6)"><path d="M42.186,15.761c-1.316,-1.489 -5.268,-0.715 -7.264,1.048c-1.996,1.764 -2.709,4.101 -1.394,5.591c1.316,1.489 4.716,1.63 6.712,-0.133c1.995,-1.764 3.26,-5.017 1.946,-6.506" style="fill:#fff;fill-rule:nonzero;"/><path d="M31.441,23.719c-0.785,-0.89 -3.145,-0.427 -4.336,0.626c-1.191,1.052 -1.617,2.448 -0.832,3.337c0.786,0.889 2.814,0.973 4.007,-0.08c1.19,-1.052 1.946,-2.994 1.161,-3.883" style="fill:#fff;fill-rule:nonzero;"/></g></g></g></g><g><path d="M76.792,41.576c-0.023,1.117 -0.396,2.203 -1.054,3.236c-3.41,-6.043 -12.898,-10.291 -24.392,-10.291c-11.53,0 -21.047,4.273 -24.43,10.346c-0.679,-1.05 -1.062,-2.154 -1.089,-3.291l0,-0.12c0,-6.533 11.67,-12.055 25.483,-12.055c13.812,0 25.482,5.522 25.482,12.055l0,0.12ZM29.026,47.213c2.308,-5.349 11.582,-9.487 22.32,-9.487c10.71,0 19.952,4.12 22.288,9.45c-4.384,3.742 -12.848,6.341 -22.324,6.341c-9.447,0 -17.887,-2.582 -22.284,-6.304M76.792,64.85c-0.001,6.533 -11.671,12.055 -25.482,12.055c-13.812,0 -25.482,-5.522 -25.483,-12.055l0,-16.29c4.732,4.884 14.255,8.15 25.483,8.15c11.227,0 20.751,-3.266 25.482,-8.15l0,16.29ZM51.31,26.197c-16.088,0 -28.688,6.703 -28.688,15.259l0,23.394c0,8.557 12.602,15.26 28.688,15.26c16.086,0 28.687,-6.703 28.687,-15.26l0,-23.394c0,-8.556 -12.6,-15.259 -28.687,-15.259" style="fill:#feef47;fill-rule:nonzero;"/></g></g><defs><linearGradient id="_Linear3" x1="0" y1="0" x2="1" y2="0" gradientUnits="userSpaceOnUse" gradientTransform="matrix(-3.7e-06,84.4227,-84.4227,-3.7e-06,50.6621,10.9126)"><stop offset="0%" style="stop-color:#ffcb02;stop-opacity:1"/><stop offset="100%" style="stop-color:#f5821f;stop-opacity:1"/></linearGradient></defs></svg>