<?xml version="1.0" standalone="no"?><!DOCTYPE svg PUBLIC "-//W3C//DTD SVG 1.1//EN" "http://www.w3.org/Graphics/SVG/1.1/DTD/svg11.dtd"><svg width="100%" height="100%" viewBox="0 0 103 102" version="1.1" xmlns="http://www.w3.org/2000/svg" xmlns:xlink="http://www.w3.org/1999/xlink" xml:space="preserve" style="fill-rule:evenodd;clip-rule:evenodd;stroke-linejoin:round;stroke-miterlimit:1.41421;"><g><g><g opacity="0.199997"><clipPath id="_clip1"><rect x="0.416" y="0.172" width="102.544" height="101.656"/></clipPath><g clip-path="url(#_clip1)"><path d="M102.004,48.392c5.208,23.568 -11.231,45.699 -40.537,52.176c-29.308,6.477 -54.953,-13.052 -59.759,-34.794c-6.477,-29.309 12.03,-58.317 41.337,-64.794c25.036,-5.532 52.481,18.104 58.959,47.412" style="fill:#ffc20c;fill-rule:nonzero;"/></g></g></g><path d="M96.43,48.691c4.645,21.015 -10.014,40.75 -36.146,46.525c-26.133,5.775 -49.001,-11.639 -53.286,-31.025c-5.776,-26.135 10.727,-52.001 36.86,-57.776c22.324,-4.934 46.797,16.143 52.572,42.276" style="fill:#faa818;fill-rule:nonzero;"/><clipPath id="_clip2"><path d="M8.611,54.236c0,18.366 17.178,38.658 41.934,38.658c24.756,0 41.934,-14.898 41.934,-34.805c0,-24.757 -17.896,-48.678 -39.044,-48.678c-24.755,0 -44.824,20.068 -44.824,44.825Z"/></clipPath><g clip-path="url(#_clip2)"><path d="M92.479,9.411l0,83.483l-83.868,0l0,-83.483l83.868,0Z" style="fill:url(#_Linear3);fill-rule:nonzero;"/></g><g><g opacity="0.100006"><clipPath id="_clip4"><rect x="8.611" y="38.489" width="83.648" height="54.406"/></clipPath><g clip-path="url(#_clip4)"><path d="M52.856,84.106c-24.756,0 -41.934,-20.293 -41.934,-38.66c0,-2.367 0.186,-4.689 0.54,-6.958c-1.839,4.901 -2.852,10.204 -2.852,15.747c0,18.366 17.179,38.659 41.934,38.659c23.14,0 39.656,-13.017 41.714,-30.975c-5.632,13.261 -20.245,22.187 -39.402,22.187" style="fill:#000;fill-rule:nonzero;"/></g></g></g><g><g opacity="0.5"><clipPath id="_clip5"><rect x="10.799" y="9.411" width="80.786" height="39.05"/></clipPath><g clip-path="url(#_clip5)"><path d="M52.94,16.45c17.301,0 32.543,14.187 38.645,32.012c-3.855,-20.982 -19.771,-39.051 -38.15,-39.051c-19.924,0 -36.803,13.003 -42.636,30.982c7.979,-14.235 23.851,-23.943 42.141,-23.943" style="fill:#fff;fill-rule:nonzero;"/></g></g></g><g><g opacity="0.800003"><g><clipPath id="_clip6"><rect x="25.758" y="14.973" width="16.848" height="13.397"/></clipPath><g clip-path="url(#_clip6)"><path d="M42.068,15.761c-1.316,-1.489 -5.268,-0.715 -7.264,1.048c-1.996,1.764 -2.709,4.101 -1.394,5.591c1.316,1.489 4.716,1.63 6.712,-0.133c1.995,-1.764 3.26,-5.017 1.946,-6.506" style="fill:#fff;fill-rule:nonzero;"/><path d="M31.324,23.719c-0.785,-0.89 -3.145,-0.427 -4.336,0.626c-1.191,1.052 -1.617,2.448 -0.832,3.337c0.786,0.889 2.814,0.973 4.007,-0.08c1.19,-1.052 1.946,-2.994 1.161,-3.883" style="fill:#fff;fill-rule:nonzero;"/></g></g></g></g><g><g><g><path d="M79.096,60.116c0,2.031 -1.652,3.684 -3.684,3.684l-0.698,0c-2.032,0 -3.684,-1.653 -3.684,-3.684l0,-14.483c0,-2.031 1.652,-3.684 3.684,-3.684l0.698,0c2.032,0 3.684,1.653 3.684,3.684l0,14.483ZM60.597,59.362c-0.499,0 -0.968,0.244 -1.254,0.654c-1.651,2.37 -4.355,3.784 -7.237,3.784c-2.881,0 -5.585,-1.414 -7.237,-3.784c-0.287,-0.41 -0.754,-0.654 -1.254,-0.654l-3.958,0c-0.845,0 -1.53,0.685 -1.53,1.529l0,3.235c0,0.557 0.303,1.07 0.791,1.34c1.185,0.653 1.921,1.89 1.921,3.229l0,0.698c0,2.032 -1.652,3.685 -3.683,3.685l-7.194,0c-2.031,0 -3.683,-1.653 -3.683,-3.685l0,-0.698c0,-1.339 0.736,-2.576 1.921,-3.229c0.488,-0.27 0.791,-0.783 0.791,-1.34l0.001,-9.188c0,-4.725 3.842,-8.569 8.567,-8.569l8.989,0c0.844,0 1.528,-0.683 1.528,-1.527l0,-3.865c0,-0.844 -0.684,-1.528 -1.528,-1.528l-2.633,0c-1.552,0 -2.815,-1.1 -2.815,-2.451c0,-1.351 1.263,-2.451 2.815,-2.451l16.22,0c1.553,0 2.816,1.1 2.816,2.451c0,1.351 -1.263,2.451 -2.816,2.451l-2.632,0c-0.845,0 -1.529,0.684 -1.529,1.528l0,3.865c0,0.844 0.684,1.527 1.529,1.527l10.469,0l0,12.993l-7.375,0ZM75.412,38.891l-0.698,0c-2.901,0 -5.373,1.846 -6.322,4.422l-9.361,0l0,-0.807l1.104,0c3.238,0 5.873,-2.471 5.873,-5.508c0,-3.037 -2.635,-5.509 -5.873,-5.509l-16.22,0c-3.238,0 -5.873,2.472 -5.873,5.509c0,3.037 2.635,5.508 5.873,5.508l1.104,0l0,0.807l-7.46,0c-6.411,0 -11.626,5.215 -11.626,11.624l0,8.361c-1.693,1.265 -2.712,3.259 -2.712,5.397l0,0.698c0,3.718 3.023,6.743 6.741,6.743l7.194,0c3.717,0 6.741,-3.024 6.741,-6.743l0,-0.698c0,-2.138 -1.019,-4.132 -2.711,-5.397l0,-0.878l1.665,0c2.247,2.793 5.649,4.438 9.255,4.438c3.607,0 7.009,-1.644 9.255,-4.438l7.025,0c0.944,2.585 3.42,4.438 6.328,4.438l0.698,0c3.718,0 6.743,-3.024 6.743,-6.742l0,-14.483c0,-3.717 -3.025,-6.742 -6.743,-6.742" style="fill:#feef47;fill-rule:nonzero;"/><path d="M38.563,48.186c-3.481,0 -7.527,3.064 -7.527,7.016c0,0.844 0.685,1.527 1.529,1.527c0.844,0 1.529,-0.683 1.529,-1.527c0,-2.185 2.704,-3.958 4.469,-3.958c0.845,0 1.529,-0.685 1.529,-1.529c0,-0.844 -0.684,-1.529 -1.529,-1.529" style="fill:#feef47;fill-rule:nonzero;"/><path d="M57.21,56.314c-0.66,-0.527 -1.622,-0.42 -2.148,0.24c-0.936,1.174 -2.385,1.934 -3.694,1.936c-0.844,0.002 -1.527,0.687 -1.525,1.532c0.002,0.844 0.685,1.526 1.528,1.526l0.004,0c2.233,-0.005 4.562,-1.187 6.076,-3.086c0.528,-0.66 0.42,-1.624 -0.241,-2.148" style="fill:#feef47;fill-rule:nonzero;"/></g></g></g></g><defs><linearGradient id="_Linear3" x1="0" y1="0" x2="1" y2="0" gradientUnits="userSpaceOnUse" gradientTransform="matrix(-3.7e-06,84.4227,-84.4227,-3.7e-06,50.5449,10.9126)"><stop offset="0%" style="stop-color:#ffcb02;stop-opacity:1"/><stop offset="100%" style="stop-color:#f5821f;stop-opacity:1"/></linearGradient></defs></svg>