<?xml version="1.0" standalone="no"?><!DOCTYPE svg PUBLIC "-//W3C//DTD SVG 1.1//EN" "http://www.w3.org/Graphics/SVG/1.1/DTD/svg11.dtd"><svg width="100%" height="100%" viewBox="0 0 104 102" version="1.1" xmlns="http://www.w3.org/2000/svg" xmlns:xlink="http://www.w3.org/1999/xlink" xml:space="preserve" style="fill-rule:evenodd;clip-rule:evenodd;stroke-linejoin:round;stroke-miterlimit:1.41421;"><g><g><g opacity="0.199997"><clipPath id="_clip1"><rect x="0.65" y="0.172" width="102.544" height="101.656"/></clipPath><g clip-path="url(#_clip1)"><path d="M102.238,48.392c5.208,23.568 -11.231,45.699 -40.537,52.176c-29.308,6.477 -54.953,-13.052 -59.759,-34.794c-6.477,-29.309 12.03,-58.317 41.337,-64.794c25.036,-5.532 52.481,18.104 58.959,47.412" style="fill:#ffc20c;fill-rule:nonzero;"/></g></g></g><path d="M96.664,48.691c4.645,21.015 -10.014,40.75 -36.146,46.525c-26.133,5.775 -49,-11.639 -53.286,-31.025c-5.775,-26.135 10.727,-52.001 36.86,-57.776c22.324,-4.934 46.797,16.143 52.572,42.276" style="fill:#faa818;fill-rule:nonzero;"/><clipPath id="_clip2"><path d="M8.846,54.236c0,18.366 17.177,38.658 41.933,38.658c24.756,0 41.935,-14.898 41.935,-34.805c0,-24.757 -17.897,-48.678 -39.044,-48.678c-24.756,0 -44.824,20.068 -44.824,44.825Z"/></clipPath><g clip-path="url(#_clip2)"><path d="M92.714,9.411l0,83.483l-83.868,0l0,-83.483l83.868,0Z" style="fill:url(#_Linear3);fill-rule:nonzero;"/></g><g><g opacity="0.100006"><clipPath id="_clip4"><rect x="8.846" y="38.489" width="83.647" height="54.406"/></clipPath><g clip-path="url(#_clip4)"><path d="M53.091,84.106c-24.756,0 -41.935,-20.293 -41.935,-38.66c0,-2.367 0.188,-4.689 0.541,-6.958c-1.839,4.901 -2.851,10.204 -2.851,15.747c0,18.366 17.178,38.659 41.933,38.659c23.14,0 39.656,-13.017 41.714,-30.975c-5.632,13.261 -20.245,22.187 -39.402,22.187" style="fill:#000;fill-rule:nonzero;"/></g></g></g><g><g opacity="0.5"><clipPath id="_clip5"><rect x="11.033" y="9.411" width="80.786" height="39.05"/></clipPath><g clip-path="url(#_clip5)"><path d="M53.175,16.45c17.301,0 32.543,14.187 38.645,32.012c-3.855,-20.982 -19.771,-39.051 -38.15,-39.051c-19.924,0 -36.803,13.003 -42.637,30.982c7.98,-14.235 23.852,-23.943 42.142,-23.943" style="fill:#fff;fill-rule:nonzero;"/></g></g></g><g><g opacity="0.800003"><g><clipPath id="_clip6"><rect x="25.992" y="14.973" width="16.849" height="13.397"/></clipPath><g clip-path="url(#_clip6)"><path d="M42.303,15.761c-1.316,-1.489 -5.268,-0.715 -7.264,1.048c-1.996,1.764 -2.709,4.101 -1.394,5.591c1.316,1.489 4.716,1.63 6.712,-0.133c1.995,-1.764 3.26,-5.017 1.946,-6.506" style="fill:#fff;fill-rule:nonzero;"/><path d="M31.559,23.719c-0.785,-0.89 -3.145,-0.427 -4.336,0.626c-1.191,1.052 -1.617,2.448 -0.832,3.337c0.786,0.889 2.814,0.973 4.007,-0.08c1.19,-1.052 1.946,-2.994 1.161,-3.883" style="fill:#fff;fill-rule:nonzero;"/></g></g></g></g><g><g><g><path d="M30.401,29.65c-1.084,0.919 -1.205,2.167 -0.293,3.567c0.584,0.899 1.221,1.766 1.852,2.633c2.935,4.031 3.021,8.195 0.662,12.518c-1.205,2.207 -2.703,4.209 -4.137,6.261c-2.242,3.212 -3.654,6.718 -3.697,10.688c-0.053,1.137 0.097,2.254 0.334,3.354c0.949,4.406 3.218,8.029 6.646,10.921c1.336,1.126 3.1,1.002 4.143,-0.165c0.992,-1.11 0.818,-2.466 -0.487,-3.774c-0.287,-0.289 -0.587,-0.568 -0.869,-0.863c-4.744,-4.967 -5.32,-11.211 -1.549,-16.942c0.645,-0.982 1.346,-1.927 2.016,-2.892c1.256,-1.806 2.42,-3.664 3.326,-5.678c3.612,-8.031 1.262,-12.858 -4.043,-19.477c-0.931,-1.16 -2.789,-1.095 -3.904,-0.151" style="fill:#feef47;"/><path d="M52.52,29.659c-1.129,-0.926 -2.736,-0.918 -3.803,0.016c-1.058,0.929 -1.183,2.07 -0.309,3.43c0.632,0.989 1.313,1.949 2.001,2.9c2.685,3.72 2.922,7.605 0.89,11.695c-1.168,2.346 -2.674,4.463 -4.203,6.575c-2.389,3.301 -3.957,6.902 -3.922,13.097c0.1,3.618 2.491,8.188 6.592,11.95c0.453,0.416 0.961,0.763 1.575,0.916c1.267,0.314 2.386,0.019 3.107,-1.073c0.73,-1.109 0.561,-2.239 -0.369,-3.215c-0.493,-0.519 -1.014,-1.009 -1.498,-1.535c-4.34,-4.705 -4.884,-10.83 -1.43,-16.203c0.717,-1.117 1.506,-2.187 2.256,-3.283c1.679,-2.451 3.189,-4.995 4.146,-7.829c1.944,-5.767 -0.308,-13.572 -5.033,-17.441" style="fill:#feef47;"/><path d="M74.325,50.769c4.631,-8.989 2.242,-13.888 -3.229,-20.888c-0.921,-1.18 -2.742,-1.205 -3.902,-0.32c-1.158,0.884 -1.307,2.227 -0.365,3.68c0.527,0.813 1.088,1.608 1.674,2.382c3.265,4.319 3.179,8.75 0.517,13.307c-1.162,1.992 -2.541,3.831 -3.847,5.721c-2.227,3.219 -3.684,6.706 -3.639,12.502c0.094,3.973 2.523,8.637 6.832,12.362c1.422,1.228 3.188,1.109 4.26,-0.111c0.982,-1.12 0.762,-2.502 -0.625,-3.893c-5.836,-5.854 -6.356,-11.926 -1.586,-18.7c1.383,-1.963 2.806,-3.9 3.91,-6.042" style="fill:#feef47;"/></g></g></g></g><defs><linearGradient id="_Linear3" x1="0" y1="0" x2="1" y2="0" gradientUnits="userSpaceOnUse" gradientTransform="matrix(-3.7e-06,84.4227,-84.4227,-3.7e-06,50.7793,10.9126)"><stop offset="0%" style="stop-color:#ffcb02;stop-opacity:1"/><stop offset="100%" style="stop-color:#f5821f;stop-opacity:1"/></linearGradient></defs></svg>