<?xml version="1.0" standalone="no"?><!DOCTYPE svg PUBLIC "-//W3C//DTD SVG 1.1//EN" "http://www.w3.org/Graphics/SVG/1.1/DTD/svg11.dtd"><svg width="100%" height="100%" viewBox="0 0 103 102" version="1.1" xmlns="http://www.w3.org/2000/svg" xmlns:xlink="http://www.w3.org/1999/xlink" xml:space="preserve" style="fill-rule:evenodd;clip-rule:evenodd;stroke-linejoin:round;stroke-miterlimit:1.41421;"><g><g><g opacity="0.199997"><clipPath id="_clip1"><rect x="0.182" y="0.172" width="102.543" height="101.656"/></clipPath><g clip-path="url(#_clip1)"><path d="M101.769,48.392c5.208,23.568 -11.231,45.699 -40.537,52.176c-29.307,6.477 -54.953,-13.052 -59.758,-34.794c-6.477,-29.309 12.03,-58.317 41.337,-64.794c25.036,-5.532 52.481,18.104 58.958,47.412" style="fill:#ffc20c;fill-rule:nonzero;"/></g></g></g><path d="M96.195,48.691c4.645,21.015 -10.014,40.75 -36.146,46.525c-26.133,5.775 -49.001,-11.639 -53.286,-31.025c-5.776,-26.135 10.727,-52.001 36.86,-57.776c22.324,-4.934 46.797,16.143 52.572,42.276" style="fill:#faa818;fill-rule:nonzero;"/><clipPath id="_clip2"><path d="M8.376,54.236c0,18.366 17.179,38.658 41.934,38.658c24.756,0 41.935,-14.898 41.935,-34.805c0,-24.757 -17.897,-48.678 -39.044,-48.678c-24.756,0 -44.825,20.068 -44.825,44.825Z"/></clipPath><g clip-path="url(#_clip2)"><path d="M92.245,9.411l0,83.483l-83.869,0l0,-83.483l83.869,0Z" style="fill:url(#_Linear3);fill-rule:nonzero;"/></g><g><g opacity="0.100006"><clipPath id="_clip4"><rect x="8.376" y="38.489" width="83.648" height="54.406"/></clipPath><g clip-path="url(#_clip4)"><path d="M52.622,84.106c-24.756,0 -41.934,-20.293 -41.934,-38.66c0,-2.367 0.186,-4.689 0.54,-6.958c-1.839,4.901 -2.852,10.204 -2.852,15.747c0,18.366 17.179,38.659 41.934,38.659c23.14,0 39.656,-13.017 41.714,-30.975c-5.632,13.261 -20.244,22.187 -39.402,22.187" style="fill:#000;fill-rule:nonzero;"/></g></g></g><g><g opacity="0.5"><clipPath id="_clip5"><rect x="10.565" y="9.411" width="80.786" height="39.05"/></clipPath><g clip-path="url(#_clip5)"><path d="M52.706,16.45c17.301,0 32.543,14.187 38.645,32.012c-3.855,-20.982 -19.771,-39.051 -38.15,-39.051c-19.924,0 -36.803,13.003 -42.636,30.982c7.979,-14.235 23.851,-23.943 42.141,-23.943" style="fill:#fff;fill-rule:nonzero;"/></g></g></g><g><g opacity="0.800003"><g><path d="M32.411,66.495c-0.583,-0.224 -0.875,-0.876 -0.651,-1.458c0.222,-0.582 0.875,-0.874 1.458,-0.651c0.687,0.262 1.567,0.16 2.475,-0.291c1.435,-0.711 2.679,-2.138 3.094,-3.553c0.176,-0.597 0.803,-0.94 1.401,-0.765c0.598,0.18 0.941,0.804 0.765,1.402c-0.59,2.012 -2.262,3.952 -4.258,4.939c-1.48,0.734 -3.002,0.868 -4.284,0.377" style="fill:#feef47;fill-rule:nonzero;"/><path d="M40.019,44.159c-2.765,2.569 -5.781,4.657 -8.715,6.687c-0.41,0.286 -0.821,0.568 -1.23,0.854c-0.694,0.484 -1.414,1.085 -2.202,1.841c-1.457,1.395 -2.336,3.048 -2.613,4.914c-0.601,4.061 1.748,7.955 5.715,9.473c0.459,0.176 0.939,0.318 1.427,0.426c2.454,0.538 5.003,0.009 6.992,-1.451c1.917,-1.41 3.086,-3.484 3.294,-5.844c0.185,-2.103 -0.247,-4.346 -0.644,-6.067c-0.807,-3.504 -1.637,-7.111 -2.024,-10.833M30.166,70.036c-4.962,-1.898 -7.898,-6.796 -7.14,-11.911c0.351,-2.374 1.456,-4.464 3.284,-6.215c0.873,-0.837 1.682,-1.513 2.474,-2.064c0.411,-0.287 0.823,-0.571 1.235,-0.856c3.45,-2.387 7.016,-4.856 10.051,-8.057c0.297,-0.312 0.747,-0.429 1.158,-0.298c0.416,0.127 0.713,0.481 0.778,0.907c0.022,0.146 0.042,0.264 0.059,0.365c0.033,0.202 0.06,0.36 0.073,0.543c0.277,4.096 1.206,8.132 2.106,12.035c0.434,1.883 0.904,4.354 0.692,6.772c-0.265,3.016 -1.759,5.667 -4.207,7.465c-2.512,1.845 -5.724,2.514 -8.812,1.838c-0.597,-0.132 -1.186,-0.308 -1.751,-0.524" style="fill:#feef47;fill-rule:nonzero;"/><path d="M56.889,75.858c-0.583,-0.223 -0.874,-0.875 -0.651,-1.457c0.222,-0.583 0.875,-0.875 1.457,-0.651c0.687,0.262 1.567,0.158 2.476,-0.292c1.435,-0.71 2.679,-2.138 3.094,-3.553c0.176,-0.598 0.803,-0.941 1.401,-0.765c0.598,0.18 0.941,0.804 0.765,1.402c-0.591,2.012 -2.262,3.951 -4.258,4.939c-1.48,0.733 -3.002,0.867 -4.284,0.377" style="fill:#feef47;fill-rule:nonzero;"/><path d="M64.497,53.522c-2.765,2.571 -5.781,4.658 -8.715,6.688c-0.41,0.285 -0.82,0.569 -1.229,0.854c-0.695,0.482 -1.415,1.084 -2.203,1.84c-1.457,1.396 -2.336,3.05 -2.612,4.916c-0.602,4.059 1.748,7.955 5.714,9.473c0.459,0.174 0.939,0.318 1.428,0.425c2.454,0.538 5.002,0.009 6.991,-1.453c1.916,-1.408 3.086,-3.482 3.294,-5.842c0.185,-2.102 -0.246,-4.346 -0.642,-6.067c-0.808,-3.504 -1.639,-7.111 -2.026,-10.834M54.645,79.401c-4.962,-1.899 -7.899,-6.798 -7.141,-11.912c0.352,-2.374 1.457,-4.464 3.284,-6.214c0.873,-0.838 1.682,-1.513 2.474,-2.065c0.412,-0.286 0.823,-0.57 1.235,-0.856c3.45,-2.388 7.017,-4.855 10.052,-8.056c0.297,-0.313 0.746,-0.43 1.157,-0.3c0.416,0.127 0.714,0.482 0.778,0.908c0.022,0.146 0.042,0.265 0.059,0.365c0.034,0.202 0.06,0.361 0.073,0.543c0.277,4.096 1.207,8.132 2.107,12.034c0.433,1.883 0.903,4.355 0.691,6.773c-0.265,3.015 -1.759,5.666 -4.206,7.464c-2.513,1.845 -5.725,2.515 -8.812,1.838c-0.597,-0.13 -1.187,-0.307 -1.751,-0.522" style="fill:#feef47;fill-rule:nonzero;"/><path d="M53.802,47.25c-0.583,-0.222 -0.874,-0.875 -0.651,-1.457c0.223,-0.584 0.875,-0.875 1.458,-0.651c0.687,0.262 1.566,0.159 2.476,-0.291c1.434,-0.712 2.678,-2.139 3.094,-3.553c0.175,-0.599 0.803,-0.941 1.401,-0.765c0.597,0.178 0.941,0.803 0.764,1.402c-0.59,2.012 -2.262,3.95 -4.257,4.939c-1.481,0.732 -3.002,0.866 -4.285,0.376" style="fill:#feef47;fill-rule:nonzero;"/><path d="M61.41,24.914c-2.765,2.57 -5.781,4.658 -8.714,6.688c-0.411,0.285 -0.822,0.568 -1.231,0.853c-0.694,0.483 -1.415,1.085 -2.202,1.841c-1.457,1.395 -2.335,3.05 -2.613,4.916c-0.601,4.059 1.749,7.954 5.715,9.471c0.459,0.175 0.94,0.319 1.428,0.426c2.453,0.537 5.002,0.009 6.991,-1.452c1.917,-1.408 3.086,-3.483 3.294,-5.843c0.185,-2.101 -0.246,-4.346 -0.643,-6.067c-0.807,-3.503 -1.638,-7.11 -2.025,-10.833M51.558,50.792c-4.962,-1.899 -7.899,-6.797 -7.141,-11.912c0.352,-2.373 1.457,-4.464 3.284,-6.214c0.873,-0.837 1.683,-1.512 2.475,-2.064c0.41,-0.286 0.822,-0.572 1.234,-0.856c3.45,-2.388 7.016,-4.855 10.052,-8.056c0.297,-0.313 0.746,-0.429 1.157,-0.299c0.417,0.127 0.714,0.481 0.778,0.907c0.022,0.146 0.042,0.263 0.059,0.364c0.034,0.201 0.06,0.361 0.073,0.543c0.277,4.096 1.207,8.132 2.107,12.035c0.433,1.883 0.904,4.354 0.691,6.772c-0.265,3.016 -1.759,5.667 -4.207,7.464c-2.512,1.845 -5.723,2.516 -8.811,1.838c-0.598,-0.13 -1.187,-0.306 -1.751,-0.522" style="fill:#feef47;fill-rule:nonzero;"/></g></g></g><g><g opacity="0.800003"><g><clipPath id="_clip6"><rect x="25.524" y="14.973" width="16.848" height="13.397"/></clipPath><g clip-path="url(#_clip6)"><path d="M41.834,15.761c-1.317,-1.489 -5.269,-0.715 -7.264,1.048c-1.995,1.764 -2.709,4.101 -1.393,5.591c1.316,1.489 4.715,1.63 6.711,-0.133c1.995,-1.764 3.261,-5.017 1.946,-6.506" style="fill:#fff;fill-rule:nonzero;"/><path d="M31.09,23.719c-0.786,-0.89 -3.144,-0.427 -4.335,0.626c-1.192,1.052 -1.618,2.448 -0.832,3.337c0.785,0.889 2.814,0.973 4.006,-0.08c1.191,-1.052 1.946,-2.994 1.161,-3.883" style="fill:#fff;fill-rule:nonzero;"/></g></g></g></g></g><defs><linearGradient id="_Linear3" x1="0" y1="0" x2="1" y2="0" gradientUnits="userSpaceOnUse" gradientTransform="matrix(-3.7e-06,84.4227,-84.4227,-3.7e-06,50.311,10.9126)"><stop offset="0%" style="stop-color:#ffcb02;stop-opacity:1"/><stop offset="100%" style="stop-color:#f5821f;stop-opacity:1"/></linearGradient></defs></svg>