<?xml version="1.0" standalone="no"?>
<!DOCTYPE svg PUBLIC "-//W3C//DTD SVG 1.1//EN" "http://www.w3.org/Graphics/SVG/1.1/DTD/svg11.dtd">
<svg width="100%" height="100%" viewBox="0 0 104 102" version="1.1" xmlns="http://www.w3.org/2000/svg" xmlns:xlink="http://www.w3.org/1999/xlink" xml:space="preserve" style="fill-rule:evenodd;clip-rule:evenodd;stroke-linejoin:round;stroke-miterlimit:1.41421;">
    <g transform="matrix(1,0,0,1,-70,-374)">
        <g transform="matrix(1,0,0,1,-0.49516,119)">
            <g>
                <g opacity="0.199997">
                    <clipPath id="_clip1">
                        <rect x="71.182" y="255.172" width="102.543" height="101.656"/>
                    </clipPath>
                    <g clip-path="url(#_clip1)">
                        <path d="M172.769,303.392C177.977,326.96 161.538,349.091 132.232,355.568C102.925,362.045 77.279,342.516 72.474,320.774C65.997,291.465 84.504,262.457 113.811,255.98C138.847,250.448 166.292,274.084 172.769,303.392" style="fill:rgb(255,48,12);fill-rule:nonzero;"/>
                    </g>
                </g>
            </g>
            <path d="M167.195,303.691C171.84,324.706 157.181,344.441 131.049,350.216C104.916,355.991 82.048,338.577 77.763,319.191C71.987,293.056 88.49,267.19 114.623,261.415C136.947,256.481 161.42,277.558 167.195,303.691" style="fill:rgb(250,102,24);fill-rule:nonzero;"/>
            <clipPath id="_clip2">
                <path d="M79.376,309.236C79.376,327.602 96.555,347.894 121.31,347.894C146.066,347.894 163.245,332.996 163.245,313.089C163.245,288.332 145.348,264.411 124.201,264.411C99.445,264.411 79.376,284.479 79.376,309.236Z"/>
            </clipPath>
            <g clip-path="url(#_clip2)">
                <path d="M163.245,264.411L163.245,347.894L79.376,347.894L79.376,264.411L163.245,264.411Z" style="fill:url(#_Linear3);fill-rule:nonzero;"/>
            </g>
            <g>
                <g opacity="0.100006">
                    <clipPath id="_clip4">
                        <rect x="79.377" y="293.489" width="83.648" height="54.406"/>
                    </clipPath>
                    <g clip-path="url(#_clip4)">
                        <path d="M123.622,339.106C98.866,339.106 81.688,318.813 81.688,300.446C81.688,298.079 81.874,295.757 82.228,293.488C80.389,298.389 79.376,303.692 79.376,309.235C79.376,327.601 96.555,347.894 121.31,347.894C144.45,347.894 160.966,334.877 163.024,316.919C157.392,330.18 142.78,339.106 123.622,339.106" style="fill:black;fill-rule:nonzero;"/>
                    </g>
                </g>
            </g>
            <g>
                <g opacity="0.5">
                    <clipPath id="_clip5">
                        <rect x="81.565" y="264.411" width="80.786" height="39.05"/>
                    </clipPath>
                    <g clip-path="url(#_clip5)">
                        <path d="M123.706,271.45C141.007,271.45 156.249,285.637 162.351,303.462C158.496,282.48 142.58,264.411 124.201,264.411C104.277,264.411 87.398,277.414 81.565,295.393C89.544,281.158 105.416,271.45 123.706,271.45" style="fill:white;fill-rule:nonzero;"/>
                    </g>
                </g>
            </g>
            <g transform="matrix(5.34922,0,0,5.34922,-508.093,-1900.22)">
                <text x="114.876px" y="415.266px" style="font-family:'ArialMT';font-size:12px;fill:rgb(254,207,161);">x</text>
            </g>
            <g>
                <g opacity="0.800003">
                    <g>
                        <clipPath id="_clip6">
                            <rect x="96.524" y="269.973" width="16.848" height="13.397"/>
                        </clipPath>
                        <g clip-path="url(#_clip6)">
                            <path d="M112.834,270.761C111.518,269.272 107.566,270.046 105.57,271.809C103.575,273.573 102.861,275.91 104.177,277.4C105.493,278.889 108.892,279.03 110.888,277.267C112.884,275.503 114.149,272.25 112.834,270.761" style="fill:white;fill-rule:nonzero;"/>
                            <path d="M102.09,278.719C101.304,277.829 98.946,278.292 97.755,279.345C96.563,280.397 96.137,281.793 96.923,282.682C97.708,283.571 99.737,283.655 100.929,282.602C102.12,281.55 102.875,279.608 102.09,278.719" style="fill:white;fill-rule:nonzero;"/>
                        </g>
                    </g>
                </g>
            </g>
        </g>
    </g>
    <defs>
        <linearGradient id="_Linear3" x1="0" y1="0" x2="1" y2="0" gradientUnits="userSpaceOnUse" gradientTransform="matrix(-3.7e-06,84.4227,-84.4227,-3.7e-06,121.311,265.913)"><stop offset="0%" style="stop-color:rgb(255,99,2);stop-opacity:1"/><stop offset="100%" style="stop-color:rgb(245,67,31);stop-opacity:1"/></linearGradient>
    </defs>
</svg>
