<?xml version="1.0" standalone="no"?>
<!DOCTYPE svg PUBLIC "-//W3C//DTD SVG 1.1//EN" "http://www.w3.org/Graphics/SVG/1.1/DTD/svg11.dtd">
<svg width="100%" height="100%" viewBox="0 0 306 195" version="1.1" xmlns="http://www.w3.org/2000/svg" xmlns:xlink="http://www.w3.org/1999/xlink" xml:space="preserve" style="fill-rule:evenodd;clip-rule:evenodd;stroke-linejoin:round;stroke-miterlimit:1.41421;">
    <g transform="matrix(1,0,0,1,-281,-402)">
        <g>
            <g transform="matrix(1.04181,0,0,1.07372,-39.0035,-47.8618)">
                <path d="M598,435.603C598,428.918 591.279,424.131 585.517,423.491C561.76,420.851 510.218,419.765 455.46,419.765C452.506,419.765 346.712,420.495 323.483,423.491C317.733,424.232 311,428.918 311,435.603C306.555,484.643 306.637,533.739 311,582.888C311,589.573 316.593,595 323.483,595C430.804,603.521 507.813,599.113 585.517,595C592.407,595 598,589.573 598,582.888C601.659,533.776 601.631,484.681 598,435.603Z" style="fill:white;fill-opacity:0.439216;"/>
            </g>
            <g transform="matrix(1,0,0,1,-19,-11)">
                <path d="M598,437.306C598,429.681 591.81,423.491 584.185,423.491L324.815,423.491C317.19,423.491 311,429.681 311,437.306L311,581.185C311,588.81 317.19,595 324.815,595L584.185,595C591.81,595 598,588.81 598,581.185L598,437.306Z" style="fill:url(#_Linear1);"/>
            </g>
        </g>
    </g>
    <defs>
        <linearGradient id="_Linear1" x1="0" y1="0" x2="1" y2="0" gradientUnits="userSpaceOnUse" gradientTransform="matrix(-1.26614e-05,173.44,-288.895,-7.60136e-06,454.502,426.576)"><stop offset="0%" style="stop-color:rgb(235,235,235);stop-opacity:1"/><stop offset="100%" style="stop-color:white;stop-opacity:1"/></linearGradient>
    </defs>
</svg>
